# Blender 4.1.1
# www.blender.org
o Circle
v 0.000000 -2.000000 -1.000000
v -0.707107 -2.000000 -0.707107
v -1.000000 -2.000000 0.000000
v -0.707107 -2.000000 0.707107
v 0.000000 -2.000000 1.000000
v 0.707107 -2.000000 0.707107
v 1.000000 -2.000000 0.000000
v 0.707107 -2.000000 -0.707107
v 0.000000 2.000000 -1.000000
v -0.707107 2.000000 -0.707107
v -1.000000 2.000000 0.000000
v -0.707107 2.000000 0.707107
v 0.000000 2.000000 1.000000
v 0.707107 2.000000 0.707107
v 1.000000 2.000000 0.000000
v 0.707107 2.000000 -0.707107
vn -0.0000 -1.0000 -0.0000
vn -0.0000 1.0000 -0.0000
vn -0.3827 -0.0000 0.9239
vn -0.9239 -0.0000 -0.3827
vn 0.9239 -0.0000 -0.3827
vn 0.3827 -0.0000 0.9239
vn -0.9239 -0.0000 0.3827
vn -0.3827 -0.0000 -0.9239
vn 0.3827 -0.0000 -0.9239
vn 0.9239 -0.0000 0.3827
vt 0.000000 0.000000
s 0
f 2/1/1 1/1/1 8/1/1 7/1/1 6/1/1 5/1/1 4/1/1 3/1/1
f 10/1/2 11/1/2 12/1/2 13/1/2 14/1/2 15/1/2 16/1/2 9/1/2
f 4/1/3 5/1/3 13/1/3 12/1/3
f 2/1/4 3/1/4 11/1/4 10/1/4
f 7/1/5 8/1/5 16/1/5 15/1/5
f 5/1/6 6/1/6 14/1/6 13/1/6
f 3/1/7 4/1/7 12/1/7 11/1/7
f 1/1/8 2/1/8 10/1/8 9/1/8
f 8/1/9 1/1/9 9/1/9 16/1/9
f 6/1/10 7/1/10 15/1/10 14/1/10
